<svg width="189" height="29" viewBox="0 0 189 29" fill="none" xmlns="http://www.w3.org/2000/svg">
<g id="Group 15">
<path id="Star 1" d="M94.5 0L97.7555 10.0193L108.29 10.0193L99.7674 16.2115L103.023 26.2307L94.5 20.0385L85.9771 26.2307L89.2326 16.2115L80.7097 10.0193L91.2445 10.0193L94.5 0Z" fill="#3F3F3F"/>
<path id="Star 5" d="M14.5 0L17.7555 10.0193L28.2903 10.0193L19.7674 16.2115L23.0229 26.2307L14.5 20.0385L5.97711 26.2307L9.23257 16.2115L0.709681 10.0193L11.2445 10.0193L14.5 0Z" fill="#3F3F3F"/>
<path id="Star 4" d="M54.5 0L57.7555 10.0193L68.2903 10.0193L59.7674 16.2115L63.0229 26.2307L54.5 20.0385L45.9771 26.2307L49.2326 16.2115L40.7097 10.0193L51.2445 10.0193L54.5 0Z" fill="#3F3F3F"/>
<path id="Star 3" d="M174.5 0L177.755 10.0193L188.29 10.0193L179.767 16.2115L183.023 26.2307L174.5 20.0385L165.977 26.2307L169.233 16.2115L160.71 10.0193L171.245 10.0193L174.5 0Z" fill="#3F3F3F"/>
<path id="Star 2" d="M134.5 0L137.755 10.0193L148.29 10.0193L139.767 16.2115L143.023 26.2307L134.5 20.0385L125.977 26.2307L129.233 16.2115L120.71 10.0193L131.245 10.0193L134.5 0Z" fill="#3F3F3F"/>
</g>
</svg>
